<?xml version="1.0" encoding="UTF-8"?>
<svg viewBox="0 0 256 256" xmlns="http://www.w3.org/2000/svg">
 <g transform="matrix(25.898 0 0 -25.898 225.39 256)">
  <path d="m0,0c.652,0 1.182.527 1.182,1.18v7.521c0,.653-.53,1.182-1.182,1.182h-7.521c-.653,0-1.182-.529-1.182-1.182v-7.521c0-.653.529-1.18 1.182-1.18h7.521z" fill="#231f20"/>
 </g>
 <g transform="matrix(25.898 0 0 -25.898 30.601 5.2417)">
  <path d="m0,0c-.541,0-.981-.44-.981-.981v-7.522c0-.54.44-.979.981-.979h7.521c.542,0 .982.439.982.979v7.522c0,.541-.44.981-.982.981h-7.521z" fill="#fff"/>
 </g>
 <path d="m95.962 77.906h62.984v-24.784h-62.984v24.784zm56.198 58.011-15.228 18.465 26.39 32.165-11.162-50.63zm-4.066-18.31-4.8429-22.143h-31.569l-4.8429 22.091 20.615 25.302 20.641-25.25zm-56.535 68.94 26.39-32.165-15.228-18.465-11.162 50.63zm-7.0442 31.777-2.6675 12.172-17.455-0.05179 29.886-134.93-17.248-0.15539v-49.128l50.423-22.609 50.449 22.609v49.128l-17.248 0.15539 29.834 134.93-17.403 0.05179-2.6675-12.12-42.964-52.365-42.939 52.314z" fill="#231f20"/>
</svg>
